<svg width="721" height="105" viewBox="0 0 721 105" fill="none" xmlns="http://www.w3.org/2000/svg">
<path d="M0 44C0 39.5817 3.58172 36 8 36H37.4167C41.8349 36 45.4167 39.5817 45.4167 44V79C45.4167 80.1046 44.5212 81 43.4167 81H2C0.895433 81 0 80.1046 0 79V44Z" fill="#E7EBFF"/>
<path d="M14.6852 92.56C14.3812 92.56 14.1292 92.468 13.9292 92.284C13.7372 92.092 13.6412 91.856 13.6412 91.576C13.6412 91.296 13.7372 91.064 13.9292 90.88C14.1292 90.688 14.3812 90.592 14.6852 90.592C14.9812 90.592 15.2252 90.688 15.4172 90.88C15.6092 91.064 15.7052 91.296 15.7052 91.576C15.7052 91.856 15.6092 92.092 15.4172 92.284C15.2252 92.468 14.9812 92.56 14.6852 92.56ZM15.5132 101.092C15.5132 101.828 15.3292 102.356 14.9612 102.676C14.6012 103.004 14.0812 103.168 13.4012 103.168H12.6572V101.74H13.1372C13.3932 101.74 13.5732 101.688 13.6772 101.584C13.7812 101.488 13.8332 101.328 13.8332 101.104V93.352H15.5132V101.092ZM16.7411 96.652C16.7411 95.98 16.8731 95.384 17.1371 94.864C17.4091 94.344 17.7731 93.944 18.2291 93.664C18.6931 93.384 19.2091 93.244 19.7771 93.244C20.2731 93.244 20.7051 93.344 21.0731 93.544C21.4491 93.744 21.7491 93.996 21.9731 94.3V93.352H23.6651V100H21.9731V99.028C21.7571 99.34 21.4571 99.6 21.0731 99.808C20.6971 100.008 20.2611 100.108 19.7651 100.108C19.2051 100.108 18.6931 99.964 18.2291 99.676C17.7731 99.388 17.4091 98.984 17.1371 98.464C16.8731 97.936 16.7411 97.332 16.7411 96.652ZM21.9731 96.676C21.9731 96.268 21.8931 95.92 21.7331 95.632C21.5731 95.336 21.3571 95.112 21.0851 94.96C20.8131 94.8 20.5211 94.72 20.2091 94.72C19.8971 94.72 19.6091 94.796 19.3451 94.948C19.0811 95.1 18.8651 95.324 18.6971 95.62C18.5371 95.908 18.4571 96.252 18.4571 96.652C18.4571 97.052 18.5371 97.404 18.6971 97.708C18.8651 98.004 19.0811 98.232 19.3451 98.392C19.6171 98.552 19.9051 98.632 20.2091 98.632C20.5211 98.632 20.8131 98.556 21.0851 98.404C21.3571 98.244 21.5731 98.02 21.7331 97.732C21.8931 97.436 21.9731 97.084 21.9731 96.676ZM28.9899 93.256C29.7819 93.256 30.4219 93.508 30.9099 94.012C31.3979 94.508 31.6419 95.204 31.6419 96.1V100H29.9619V96.328C29.9619 95.8 29.8299 95.396 29.5659 95.116C29.3019 94.828 28.9419 94.684 28.4859 94.684C28.0219 94.684 27.6539 94.828 27.3819 95.116C27.1179 95.396 26.9859 95.8 26.9859 96.328V100H25.3059V93.352H26.9859V94.18C27.2099 93.892 27.4939 93.668 27.8379 93.508C28.1899 93.34 28.5739 93.256 28.9899 93.256Z" fill="#607087"/>
<path d="M61.4167 25C61.4167 20.5817 64.9985 17 69.4167 17H98.8334C103.252 17 106.833 20.5817 106.833 25V79C106.833 80.1046 105.938 81 104.833 81H63.4168C62.3122 81 61.4167 80.1046 61.4167 79V25Z" fill="#E7EBFF"/>
<path d="M78.1632 94.732H76.9992V100H75.2952V94.732H74.5392V93.352H75.2952V93.016C75.2952 92.2 75.5272 91.6 75.9912 91.216C76.4552 90.832 77.1552 90.652 78.0912 90.676V92.092C77.6832 92.084 77.3992 92.152 77.2392 92.296C77.0792 92.44 76.9992 92.7 76.9992 93.076V93.352H78.1632V94.732ZM85.4319 96.532C85.4319 96.772 85.4159 96.988 85.3839 97.18H80.5239C80.5639 97.66 80.7319 98.036 81.0279 98.308C81.3239 98.58 81.6879 98.716 82.1199 98.716C82.7439 98.716 83.1879 98.448 83.4519 97.912H85.2639C85.0719 98.552 84.7039 99.08 84.1599 99.496C83.6159 99.904 82.9479 100.108 82.1559 100.108C81.5159 100.108 80.9399 99.968 80.4279 99.688C79.9239 99.4 79.5279 98.996 79.2399 98.476C78.9599 97.956 78.8199 97.356 78.8199 96.676C78.8199 95.988 78.9599 95.384 79.2399 94.864C79.5199 94.344 79.9119 93.944 80.4159 93.664C80.9199 93.384 81.4999 93.244 82.1559 93.244C82.7879 93.244 83.3519 93.38 83.8479 93.652C84.3519 93.924 84.7399 94.312 85.0119 94.816C85.2919 95.312 85.4319 95.884 85.4319 96.532ZM83.6919 96.052C83.6839 95.62 83.5279 95.276 83.2239 95.02C82.9199 94.756 82.5479 94.624 82.1079 94.624C81.6919 94.624 81.3399 94.752 81.0519 95.008C80.7719 95.256 80.5999 95.604 80.5359 96.052H83.6919ZM88.3382 94.324C88.5542 94.004 88.8502 93.744 89.2262 93.544C89.6102 93.344 90.0462 93.244 90.5342 93.244C91.1022 93.244 91.6142 93.384 92.0702 93.664C92.5342 93.944 92.8982 94.344 93.1622 94.864C93.4342 95.376 93.5702 95.972 93.5702 96.652C93.5702 97.332 93.4342 97.936 93.1622 98.464C92.8982 98.984 92.5342 99.388 92.0702 99.676C91.6142 99.964 91.1022 100.108 90.5342 100.108C90.0382 100.108 89.6022 100.012 89.2262 99.82C88.8582 99.62 88.5622 99.364 88.3382 99.052V100H86.6582V91.12H88.3382V94.324ZM91.8542 96.652C91.8542 96.252 91.7702 95.908 91.6022 95.62C91.4422 95.324 91.2262 95.1 90.9542 94.948C90.6902 94.796 90.4022 94.72 90.0902 94.72C89.7862 94.72 89.4982 94.8 89.2262 94.96C88.9622 95.112 88.7462 95.336 88.5782 95.632C88.4182 95.928 88.3382 96.276 88.3382 96.676C88.3382 97.076 88.4182 97.424 88.5782 97.72C88.7462 98.016 88.9622 98.244 89.2262 98.404C89.4982 98.556 89.7862 98.632 90.0902 98.632C90.4022 98.632 90.6902 98.552 90.9542 98.392C91.2262 98.232 91.4422 98.004 91.6022 97.708C91.7702 97.412 91.8542 97.06 91.8542 96.652Z" fill="#607087"/>
<path d="M122.833 35C122.833 30.5817 126.415 27 130.833 27H160.25C164.668 27 168.25 30.5817 168.25 35V79C168.25 80.1046 167.354 81 166.25 81H124.833C123.729 81 122.833 80.1046 122.833 79V35Z" fill="#E7EBFF"/>
<path d="M141.846 93.256C142.662 93.256 143.318 93.508 143.814 94.012C144.318 94.508 144.57 95.204 144.57 96.1V100H142.89V96.328C142.89 95.808 142.758 95.412 142.494 95.14C142.23 94.86 141.87 94.72 141.414 94.72C140.958 94.72 140.594 94.86 140.322 95.14C140.058 95.412 139.926 95.808 139.926 96.328V100H138.246V96.328C138.246 95.808 138.114 95.412 137.85 95.14C137.586 94.86 137.226 94.72 136.77 94.72C136.306 94.72 135.938 94.86 135.666 95.14C135.402 95.412 135.27 95.808 135.27 96.328V100H133.59V93.352H135.27V94.156C135.486 93.876 135.762 93.656 136.098 93.496C136.442 93.336 136.818 93.256 137.226 93.256C137.746 93.256 138.21 93.368 138.618 93.592C139.026 93.808 139.342 94.12 139.566 94.528C139.782 94.144 140.094 93.836 140.502 93.604C140.918 93.372 141.366 93.256 141.846 93.256ZM145.733 96.652C145.733 95.98 145.865 95.384 146.129 94.864C146.401 94.344 146.765 93.944 147.221 93.664C147.685 93.384 148.201 93.244 148.769 93.244C149.265 93.244 149.697 93.344 150.065 93.544C150.441 93.744 150.741 93.996 150.965 94.3V93.352H152.657V100H150.965V99.028C150.749 99.34 150.449 99.6 150.065 99.808C149.689 100.008 149.253 100.108 148.757 100.108C148.197 100.108 147.685 99.964 147.221 99.676C146.765 99.388 146.401 98.984 146.129 98.464C145.865 97.936 145.733 97.332 145.733 96.652ZM150.965 96.676C150.965 96.268 150.885 95.92 150.725 95.632C150.565 95.336 150.349 95.112 150.077 94.96C149.805 94.8 149.513 94.72 149.201 94.72C148.889 94.72 148.601 94.796 148.337 94.948C148.073 95.1 147.857 95.324 147.689 95.62C147.529 95.908 147.449 96.252 147.449 96.652C147.449 97.052 147.529 97.404 147.689 97.708C147.857 98.004 148.073 98.232 148.337 98.392C148.609 98.552 148.897 98.632 149.201 98.632C149.513 98.632 149.805 98.556 150.077 98.404C150.349 98.244 150.565 98.02 150.725 97.732C150.885 97.436 150.965 97.084 150.965 96.676ZM155.977 94.384C156.193 94.032 156.473 93.756 156.817 93.556C157.169 93.356 157.569 93.256 158.017 93.256V95.02H157.573C157.045 95.02 156.645 95.144 156.373 95.392C156.109 95.64 155.977 96.072 155.977 96.688V100H154.297V93.352H155.977V94.384Z" fill="#607087"/>
<path d="M184.25 55C184.25 50.5817 187.832 47 192.25 47H221.667C226.085 47 229.667 50.5817 229.667 55V79C229.667 80.1046 228.771 81 227.667 81H186.25C185.145 81 184.25 80.1046 184.25 79V55Z" fill="#E7EBFF"/>
<path d="M196.796 96.652C196.796 95.98 196.928 95.384 197.192 94.864C197.464 94.344 197.828 93.944 198.284 93.664C198.748 93.384 199.264 93.244 199.832 93.244C200.328 93.244 200.76 93.344 201.128 93.544C201.504 93.744 201.804 93.996 202.028 94.3V93.352H203.72V100H202.028V99.028C201.812 99.34 201.512 99.6 201.128 99.808C200.752 100.008 200.316 100.108 199.82 100.108C199.26 100.108 198.748 99.964 198.284 99.676C197.828 99.388 197.464 98.984 197.192 98.464C196.928 97.936 196.796 97.332 196.796 96.652ZM202.028 96.676C202.028 96.268 201.948 95.92 201.788 95.632C201.628 95.336 201.412 95.112 201.14 94.96C200.868 94.8 200.576 94.72 200.264 94.72C199.952 94.72 199.664 94.796 199.4 94.948C199.136 95.1 198.92 95.324 198.752 95.62C198.592 95.908 198.512 96.252 198.512 96.652C198.512 97.052 198.592 97.404 198.752 97.708C198.92 98.004 199.136 98.232 199.4 98.392C199.672 98.552 199.96 98.632 200.264 98.632C200.576 98.632 200.868 98.556 201.14 98.404C201.412 98.244 201.628 98.02 201.788 97.732C201.948 97.436 202.028 97.084 202.028 96.676ZM207.041 94.312C207.257 94.008 207.553 93.756 207.929 93.556C208.313 93.348 208.749 93.244 209.237 93.244C209.805 93.244 210.317 93.384 210.773 93.664C211.237 93.944 211.601 94.344 211.865 94.864C212.137 95.376 212.273 95.972 212.273 96.652C212.273 97.332 212.137 97.936 211.865 98.464C211.601 98.984 211.237 99.388 210.773 99.676C210.317 99.964 209.805 100.108 209.237 100.108C208.749 100.108 208.317 100.008 207.941 99.808C207.573 99.608 207.273 99.356 207.041 99.052V103.168H205.361V93.352H207.041V94.312ZM210.557 96.652C210.557 96.252 210.473 95.908 210.305 95.62C210.145 95.324 209.929 95.1 209.657 94.948C209.393 94.796 209.105 94.72 208.793 94.72C208.489 94.72 208.201 94.8 207.929 94.96C207.665 95.112 207.449 95.336 207.281 95.632C207.121 95.928 207.041 96.276 207.041 96.676C207.041 97.076 207.121 97.424 207.281 97.72C207.449 98.016 207.665 98.244 207.929 98.404C208.201 98.556 208.489 98.632 208.793 98.632C209.105 98.632 209.393 98.552 209.657 98.392C209.929 98.232 210.145 98.004 210.305 97.708C210.473 97.412 210.557 97.06 210.557 96.652ZM215.173 94.384C215.389 94.032 215.669 93.756 216.013 93.556C216.365 93.356 216.765 93.256 217.213 93.256V95.02H216.769C216.241 95.02 215.841 95.144 215.569 95.392C215.305 95.64 215.173 96.072 215.173 96.688V100H213.493V93.352H215.173V94.384Z" fill="#607087"/>
<path d="M245.667 8C245.667 3.58172 249.248 0 253.667 0H283.083C287.502 0 291.083 3.58172 291.083 8V79C291.083 80.1046 290.188 81 289.083 81H247.667C246.562 81 245.667 80.1046 245.667 79V8Z" fill="#376BBA"/>
<path d="M263.473 93.256C264.289 93.256 264.945 93.508 265.441 94.012C265.945 94.508 266.197 95.204 266.197 96.1V100H264.517V96.328C264.517 95.808 264.385 95.412 264.121 95.14C263.857 94.86 263.497 94.72 263.041 94.72C262.585 94.72 262.221 94.86 261.949 95.14C261.685 95.412 261.553 95.808 261.553 96.328V100H259.873V96.328C259.873 95.808 259.741 95.412 259.477 95.14C259.213 94.86 258.853 94.72 258.397 94.72C257.933 94.72 257.565 94.86 257.293 95.14C257.029 95.412 256.897 95.808 256.897 96.328V100H255.217V93.352H256.897V94.156C257.113 93.876 257.389 93.656 257.725 93.496C258.069 93.336 258.445 93.256 258.853 93.256C259.373 93.256 259.837 93.368 260.245 93.592C260.653 93.808 260.969 94.12 261.193 94.528C261.409 94.144 261.721 93.836 262.129 93.604C262.545 93.372 262.993 93.256 263.473 93.256ZM267.359 96.652C267.359 95.98 267.491 95.384 267.755 94.864C268.027 94.344 268.391 93.944 268.847 93.664C269.311 93.384 269.827 93.244 270.395 93.244C270.891 93.244 271.323 93.344 271.691 93.544C272.067 93.744 272.367 93.996 272.591 94.3V93.352H274.283V100H272.591V99.028C272.375 99.34 272.075 99.6 271.691 99.808C271.315 100.008 270.879 100.108 270.383 100.108C269.823 100.108 269.311 99.964 268.847 99.676C268.391 99.388 268.027 98.984 267.755 98.464C267.491 97.936 267.359 97.332 267.359 96.652ZM272.591 96.676C272.591 96.268 272.511 95.92 272.351 95.632C272.191 95.336 271.975 95.112 271.703 94.96C271.431 94.8 271.139 94.72 270.827 94.72C270.515 94.72 270.227 94.796 269.963 94.948C269.699 95.1 269.483 95.324 269.315 95.62C269.155 95.908 269.075 96.252 269.075 96.652C269.075 97.052 269.155 97.404 269.315 97.708C269.483 98.004 269.699 98.232 269.963 98.392C270.235 98.552 270.523 98.632 270.827 98.632C271.139 98.632 271.431 98.556 271.703 98.404C271.975 98.244 272.191 98.02 272.351 97.732C272.511 97.436 272.591 97.084 272.591 96.676ZM282.284 93.352L278.168 103.144H276.38L277.82 99.832L275.156 93.352H277.04L278.756 97.996L280.496 93.352H282.284Z" fill="#607087"/>
<path d="M307.083 25C307.083 20.5817 310.665 17 315.083 17H344.5C348.918 17 352.5 20.5817 352.5 25V79C352.5 80.1046 351.604 81 350.5 81H309.083C307.979 81 307.083 80.1046 307.083 79V25Z" fill="#E7EBFF"/>
<path d="M321.868 92.56C321.564 92.56 321.312 92.468 321.112 92.284C320.92 92.092 320.824 91.856 320.824 91.576C320.824 91.296 320.92 91.064 321.112 90.88C321.312 90.688 321.564 90.592 321.868 90.592C322.164 90.592 322.408 90.688 322.6 90.88C322.792 91.064 322.888 91.296 322.888 91.576C322.888 91.856 322.792 92.092 322.6 92.284C322.408 92.468 322.164 92.56 321.868 92.56ZM322.696 101.092C322.696 101.828 322.512 102.356 322.144 102.676C321.784 103.004 321.264 103.168 320.584 103.168H319.84V101.74H320.32C320.576 101.74 320.756 101.688 320.86 101.584C320.964 101.488 321.016 101.328 321.016 101.104V93.352H322.696V101.092ZM330.632 93.352V100H328.94V99.16C328.724 99.448 328.44 99.676 328.088 99.844C327.744 100.004 327.368 100.084 326.96 100.084C326.44 100.084 325.98 99.976 325.58 99.76C325.18 99.536 324.864 99.212 324.632 98.788C324.408 98.356 324.296 97.844 324.296 97.252V93.352H325.976V97.012C325.976 97.54 326.108 97.948 326.372 98.236C326.636 98.516 326.996 98.656 327.452 98.656C327.916 98.656 328.28 98.516 328.544 98.236C328.808 97.948 328.94 97.54 328.94 97.012V93.352H330.632ZM335.974 93.256C336.766 93.256 337.406 93.508 337.894 94.012C338.382 94.508 338.626 95.204 338.626 96.1V100H336.946V96.328C336.946 95.8 336.814 95.396 336.55 95.116C336.286 94.828 335.926 94.684 335.47 94.684C335.006 94.684 334.638 94.828 334.366 95.116C334.102 95.396 333.97 95.8 333.97 96.328V100H332.29V93.352H333.97V94.18C334.194 93.892 334.478 93.668 334.822 93.508C335.174 93.34 335.558 93.256 335.974 93.256Z" fill="#607087"/>
<path d="M368.5 55C368.5 50.5817 372.082 47 376.5 47H405.917C410.335 47 413.917 50.5817 413.917 55V79C413.917 80.1046 413.021 81 411.917 81H370.5C369.395 81 368.5 80.1046 368.5 79V55Z" fill="#E7EBFF"/>
<path d="M381.949 92.56C381.645 92.56 381.393 92.468 381.193 92.284C381.001 92.092 380.905 91.856 380.905 91.576C380.905 91.296 381.001 91.064 381.193 90.88C381.393 90.688 381.645 90.592 381.949 90.592C382.245 90.592 382.489 90.688 382.681 90.88C382.873 91.064 382.969 91.296 382.969 91.576C382.969 91.856 382.873 92.092 382.681 92.284C382.489 92.468 382.245 92.56 381.949 92.56ZM382.777 101.092C382.777 101.828 382.593 102.356 382.225 102.676C381.865 103.004 381.345 103.168 380.665 103.168H379.921V101.74H380.401C380.657 101.74 380.837 101.688 380.941 101.584C381.045 101.488 381.097 101.328 381.097 101.104V93.352H382.777V101.092ZM390.713 93.352V100H389.021V99.16C388.805 99.448 388.521 99.676 388.169 99.844C387.825 100.004 387.449 100.084 387.041 100.084C386.521 100.084 386.061 99.976 385.661 99.76C385.261 99.536 384.945 99.212 384.713 98.788C384.489 98.356 384.377 97.844 384.377 97.252V93.352H386.057V97.012C386.057 97.54 386.189 97.948 386.453 98.236C386.717 98.516 387.077 98.656 387.533 98.656C387.997 98.656 388.361 98.516 388.625 98.236C388.889 97.948 389.021 97.54 389.021 97.012V93.352H390.713ZM394.05 91.12V100H392.37V91.12H394.05ZM402.07 93.352L397.954 103.144H396.166L397.606 99.832L394.942 93.352H396.826L398.542 97.996L400.282 93.352H402.07Z" fill="#607087"/>
<path d="M429.917 35C429.917 30.5817 433.498 27 437.917 27H467.333C471.752 27 475.333 30.5817 475.333 35V79C475.333 80.1046 474.438 81 473.333 81H431.917C430.812 81 429.917 80.1046 429.917 79V35Z" fill="#E7EBFF"/>
<path d="M440.921 96.652C440.921 95.98 441.053 95.384 441.317 94.864C441.589 94.344 441.953 93.944 442.409 93.664C442.873 93.384 443.389 93.244 443.957 93.244C444.453 93.244 444.885 93.344 445.253 93.544C445.629 93.744 445.929 93.996 446.153 94.3V93.352H447.845V100H446.153V99.028C445.937 99.34 445.637 99.6 445.253 99.808C444.877 100.008 444.441 100.108 443.945 100.108C443.385 100.108 442.873 99.964 442.409 99.676C441.953 99.388 441.589 98.984 441.317 98.464C441.053 97.936 440.921 97.332 440.921 96.652ZM446.153 96.676C446.153 96.268 446.073 95.92 445.913 95.632C445.753 95.336 445.537 95.112 445.265 94.96C444.993 94.8 444.701 94.72 444.389 94.72C444.077 94.72 443.789 94.796 443.525 94.948C443.261 95.1 443.045 95.324 442.877 95.62C442.717 95.908 442.637 96.252 442.637 96.652C442.637 97.052 442.717 97.404 442.877 97.708C443.045 98.004 443.261 98.232 443.525 98.392C443.797 98.552 444.085 98.632 444.389 98.632C444.701 98.632 444.993 98.556 445.265 98.404C445.537 98.244 445.753 98.02 445.913 97.732C446.073 97.436 446.153 97.084 446.153 96.676ZM455.762 93.352V100H454.07V99.16C453.854 99.448 453.57 99.676 453.218 99.844C452.874 100.004 452.498 100.084 452.09 100.084C451.57 100.084 451.11 99.976 450.71 99.76C450.31 99.536 449.994 99.212 449.762 98.788C449.538 98.356 449.426 97.844 449.426 97.252V93.352H451.106V97.012C451.106 97.54 451.238 97.948 451.502 98.236C451.766 98.516 452.126 98.656 452.582 98.656C453.046 98.656 453.41 98.516 453.674 98.236C453.938 97.948 454.07 97.54 454.07 97.012V93.352H455.762ZM460.024 93.244C460.52 93.244 460.956 93.344 461.332 93.544C461.708 93.736 462.004 93.988 462.22 94.3V93.352H463.912V100.048C463.912 100.664 463.788 101.212 463.54 101.692C463.292 102.18 462.92 102.564 462.424 102.844C461.928 103.132 461.328 103.276 460.624 103.276C459.68 103.276 458.904 103.056 458.296 102.616C457.696 102.176 457.356 101.576 457.276 100.816H458.944C459.032 101.12 459.22 101.36 459.508 101.536C459.804 101.72 460.16 101.812 460.576 101.812C461.064 101.812 461.46 101.664 461.764 101.368C462.068 101.08 462.22 100.64 462.22 100.048V99.016C462.004 99.328 461.704 99.588 461.32 99.796C460.944 100.004 460.512 100.108 460.024 100.108C459.464 100.108 458.952 99.964 458.488 99.676C458.024 99.388 457.656 98.984 457.384 98.464C457.12 97.936 456.988 97.332 456.988 96.652C456.988 95.98 457.12 95.384 457.384 94.864C457.656 94.344 458.02 93.944 458.476 93.664C458.94 93.384 459.456 93.244 460.024 93.244ZM462.22 96.676C462.22 96.268 462.14 95.92 461.98 95.632C461.82 95.336 461.604 95.112 461.332 94.96C461.06 94.8 460.768 94.72 460.456 94.72C460.144 94.72 459.856 94.796 459.592 94.948C459.328 95.1 459.112 95.324 458.944 95.62C458.784 95.908 458.704 96.252 458.704 96.652C458.704 97.052 458.784 97.404 458.944 97.708C459.112 98.004 459.328 98.232 459.592 98.392C459.864 98.552 460.152 98.632 460.456 98.632C460.768 98.632 461.06 98.556 461.332 98.404C461.604 98.244 461.82 98.02 461.98 97.732C462.14 97.436 462.22 97.084 462.22 96.676Z" fill="#607087"/>
<path d="M491.333 25C491.333 20.5817 494.915 17 499.333 17H528.75C533.168 17 536.75 20.5817 536.75 25V79C536.75 80.1046 535.855 81 534.75 81H493.333C492.229 81 491.333 80.1046 491.333 79V25Z" fill="#376BBA"/>
<path d="M506.375 100.108C505.831 100.108 505.343 100.012 504.911 99.82C504.479 99.62 504.135 99.352 503.879 99.016C503.631 98.68 503.495 98.308 503.471 97.9H505.163C505.195 98.156 505.319 98.368 505.535 98.536C505.759 98.704 506.035 98.788 506.363 98.788C506.683 98.788 506.931 98.724 507.107 98.596C507.291 98.468 507.383 98.304 507.383 98.104C507.383 97.888 507.271 97.728 507.047 97.624C506.831 97.512 506.483 97.392 506.003 97.264C505.507 97.144 505.099 97.02 504.779 96.892C504.467 96.764 504.195 96.568 503.963 96.304C503.739 96.04 503.627 95.684 503.627 95.236C503.627 94.868 503.731 94.532 503.939 94.228C504.155 93.924 504.459 93.684 504.851 93.508C505.251 93.332 505.719 93.244 506.255 93.244C507.047 93.244 507.679 93.444 508.151 93.844C508.623 94.236 508.883 94.768 508.931 95.44H507.323C507.299 95.176 507.187 94.968 506.987 94.816C506.795 94.656 506.535 94.576 506.207 94.576C505.903 94.576 505.667 94.632 505.499 94.744C505.339 94.856 505.259 95.012 505.259 95.212C505.259 95.436 505.371 95.608 505.595 95.728C505.819 95.84 506.167 95.956 506.639 96.076C507.119 96.196 507.515 96.32 507.827 96.448C508.139 96.576 508.407 96.776 508.631 97.048C508.863 97.312 508.983 97.664 508.991 98.104C508.991 98.488 508.883 98.832 508.667 99.136C508.459 99.44 508.155 99.68 507.755 99.856C507.363 100.024 506.903 100.108 506.375 100.108ZM516.55 96.532C516.55 96.772 516.534 96.988 516.502 97.18H511.642C511.682 97.66 511.85 98.036 512.146 98.308C512.442 98.58 512.806 98.716 513.238 98.716C513.862 98.716 514.306 98.448 514.57 97.912H516.382C516.19 98.552 515.822 99.08 515.278 99.496C514.734 99.904 514.066 100.108 513.274 100.108C512.634 100.108 512.058 99.968 511.546 99.688C511.042 99.4 510.646 98.996 510.358 98.476C510.078 97.956 509.938 97.356 509.938 96.676C509.938 95.988 510.078 95.384 510.358 94.864C510.638 94.344 511.03 93.944 511.534 93.664C512.038 93.384 512.618 93.244 513.274 93.244C513.906 93.244 514.47 93.38 514.966 93.652C515.47 93.924 515.858 94.312 516.13 94.816C516.41 95.312 516.55 95.884 516.55 96.532ZM514.81 96.052C514.802 95.62 514.646 95.276 514.342 95.02C514.038 94.756 513.666 94.624 513.226 94.624C512.81 94.624 512.458 94.752 512.17 95.008C511.89 95.256 511.718 95.604 511.654 96.052H514.81ZM519.456 94.312C519.672 94.008 519.968 93.756 520.344 93.556C520.728 93.348 521.164 93.244 521.652 93.244C522.22 93.244 522.732 93.384 523.188 93.664C523.652 93.944 524.016 94.344 524.28 94.864C524.552 95.376 524.688 95.972 524.688 96.652C524.688 97.332 524.552 97.936 524.28 98.464C524.016 98.984 523.652 99.388 523.188 99.676C522.732 99.964 522.22 100.108 521.652 100.108C521.164 100.108 520.732 100.008 520.356 99.808C519.988 99.608 519.688 99.356 519.456 99.052V103.168H517.776V93.352H519.456V94.312ZM522.972 96.652C522.972 96.252 522.888 95.908 522.72 95.62C522.56 95.324 522.344 95.1 522.072 94.948C521.808 94.796 521.52 94.72 521.208 94.72C520.904 94.72 520.616 94.8 520.344 94.96C520.08 95.112 519.864 95.336 519.696 95.632C519.536 95.928 519.456 96.276 519.456 96.676C519.456 97.076 519.536 97.424 519.696 97.72C519.864 98.016 520.08 98.244 520.344 98.404C520.616 98.556 520.904 98.632 521.208 98.632C521.52 98.632 521.808 98.552 522.072 98.392C522.344 98.232 522.56 98.004 522.72 97.708C522.888 97.412 522.972 97.06 522.972 96.652Z" fill="#607087"/>
<path d="M552.75 44C552.75 39.5817 556.332 36 560.75 36H590.167C594.585 36 598.167 39.5817 598.167 44V79C598.167 80.1046 597.271 81 596.167 81H554.75C553.645 81 552.75 80.1046 552.75 79V44Z" fill="#E7EBFF"/>
<path d="M569.477 100.108C568.837 100.108 568.261 99.968 567.749 99.688C567.237 99.4 566.833 98.996 566.537 98.476C566.249 97.956 566.105 97.356 566.105 96.676C566.105 95.996 566.253 95.396 566.549 94.876C566.853 94.356 567.265 93.956 567.785 93.676C568.305 93.388 568.885 93.244 569.525 93.244C570.165 93.244 570.745 93.388 571.265 93.676C571.785 93.956 572.193 94.356 572.489 94.876C572.793 95.396 572.945 95.996 572.945 96.676C572.945 97.356 572.789 97.956 572.477 98.476C572.173 98.996 571.757 99.4 571.229 99.688C570.709 99.968 570.125 100.108 569.477 100.108ZM569.477 98.644C569.781 98.644 570.065 98.572 570.329 98.428C570.601 98.276 570.817 98.052 570.977 97.756C571.137 97.46 571.217 97.1 571.217 96.676C571.217 96.044 571.049 95.56 570.713 95.224C570.385 94.88 569.981 94.708 569.501 94.708C569.021 94.708 568.617 94.88 568.289 95.224C567.969 95.56 567.809 96.044 567.809 96.676C567.809 97.308 567.965 97.796 568.277 98.14C568.597 98.476 568.997 98.644 569.477 98.644ZM573.745 96.676C573.745 95.988 573.885 95.388 574.165 94.876C574.445 94.356 574.833 93.956 575.329 93.676C575.825 93.388 576.393 93.244 577.033 93.244C577.857 93.244 578.537 93.452 579.073 93.868C579.617 94.276 579.981 94.852 580.165 95.596H578.353C578.257 95.308 578.093 95.084 577.861 94.924C577.637 94.756 577.357 94.672 577.021 94.672C576.541 94.672 576.161 94.848 575.881 95.2C575.601 95.544 575.461 96.036 575.461 96.676C575.461 97.308 575.601 97.8 575.881 98.152C576.161 98.496 576.541 98.668 577.021 98.668C577.701 98.668 578.145 98.364 578.353 97.756H580.165C579.981 98.476 579.617 99.048 579.073 99.472C578.529 99.896 577.849 100.108 577.033 100.108C576.393 100.108 575.825 99.968 575.329 99.688C574.833 99.4 574.445 99 574.165 98.488C573.885 97.968 573.745 97.364 573.745 96.676ZM583.352 94.732V97.948C583.352 98.172 583.404 98.336 583.508 98.44C583.62 98.536 583.804 98.584 584.06 98.584H584.84V100H583.784C582.368 100 581.66 99.312 581.66 97.936V94.732H580.868V93.352H581.66V91.708H583.352V93.352H584.84V94.732H583.352Z" fill="#607087"/>
<path d="M614.167 25C614.167 20.5817 617.748 17 622.167 17H651.583C656.002 17 659.583 20.5817 659.583 25V79C659.583 80.1046 658.688 81 657.583 81H616.167C615.062 81 614.167 80.1046 614.167 79V25Z" fill="#E7EBFF"/>
<path d="M630.002 93.256C630.794 93.256 631.434 93.508 631.922 94.012C632.41 94.508 632.654 95.204 632.654 96.1V100H630.974V96.328C630.974 95.8 630.842 95.396 630.578 95.116C630.314 94.828 629.954 94.684 629.498 94.684C629.034 94.684 628.666 94.828 628.394 95.116C628.13 95.396 627.998 95.8 627.998 96.328V100H626.318V93.352H627.998V94.18C628.222 93.892 628.506 93.668 628.85 93.508C629.202 93.34 629.586 93.256 630.002 93.256ZM637.204 100.108C636.564 100.108 635.988 99.968 635.476 99.688C634.964 99.4 634.56 98.996 634.264 98.476C633.976 97.956 633.832 97.356 633.832 96.676C633.832 95.996 633.98 95.396 634.276 94.876C634.58 94.356 634.992 93.956 635.512 93.676C636.032 93.388 636.612 93.244 637.252 93.244C637.892 93.244 638.472 93.388 638.992 93.676C639.512 93.956 639.92 94.356 640.216 94.876C640.52 95.396 640.672 95.996 640.672 96.676C640.672 97.356 640.516 97.956 640.204 98.476C639.9 98.996 639.484 99.4 638.956 99.688C638.436 99.968 637.852 100.108 637.204 100.108ZM637.204 98.644C637.508 98.644 637.792 98.572 638.056 98.428C638.328 98.276 638.544 98.052 638.704 97.756C638.864 97.46 638.944 97.1 638.944 96.676C638.944 96.044 638.776 95.56 638.44 95.224C638.112 94.88 637.708 94.708 637.228 94.708C636.748 94.708 636.344 94.88 636.016 95.224C635.696 95.56 635.536 96.044 635.536 96.676C635.536 97.308 635.692 97.796 636.004 98.14C636.324 98.476 636.724 98.644 637.204 98.644ZM644.676 98.452L646.356 93.352H648.144L645.684 100H643.644L641.196 93.352H642.996L644.676 98.452Z" fill="#607087"/>
<path d="M675.583 35C675.583 30.5817 679.165 27 683.583 27H713C717.418 27 721 30.5817 721 35V79C721 80.1046 720.105 81 719 81H677.583C676.479 81 675.583 80.1046 675.583 79V35Z" fill="#E7EBFF"/>
<path d="M687.309 96.652C687.309 95.98 687.441 95.384 687.705 94.864C687.977 94.344 688.345 93.944 688.809 93.664C689.273 93.384 689.789 93.244 690.357 93.244C690.789 93.244 691.201 93.34 691.593 93.532C691.985 93.716 692.297 93.964 692.529 94.276V91.12H694.233V100H692.529V99.016C692.321 99.344 692.029 99.608 691.653 99.808C691.277 100.008 690.841 100.108 690.345 100.108C689.785 100.108 689.273 99.964 688.809 99.676C688.345 99.388 687.977 98.984 687.705 98.464C687.441 97.936 687.309 97.332 687.309 96.652ZM692.541 96.676C692.541 96.268 692.461 95.92 692.301 95.632C692.141 95.336 691.925 95.112 691.653 94.96C691.381 94.8 691.089 94.72 690.777 94.72C690.465 94.72 690.177 94.796 689.913 94.948C689.649 95.1 689.433 95.324 689.265 95.62C689.105 95.908 689.025 96.252 689.025 96.652C689.025 97.052 689.105 97.404 689.265 97.708C689.433 98.004 689.649 98.232 689.913 98.392C690.185 98.552 690.473 98.632 690.777 98.632C691.089 98.632 691.381 98.556 691.653 98.404C691.925 98.244 692.141 98.02 692.301 97.732C692.461 97.436 692.541 97.084 692.541 96.676ZM702.054 96.532C702.054 96.772 702.038 96.988 702.006 97.18H697.146C697.186 97.66 697.354 98.036 697.65 98.308C697.946 98.58 698.31 98.716 698.742 98.716C699.366 98.716 699.81 98.448 700.074 97.912H701.886C701.694 98.552 701.326 99.08 700.782 99.496C700.238 99.904 699.57 100.108 698.778 100.108C698.138 100.108 697.562 99.968 697.05 99.688C696.546 99.4 696.15 98.996 695.862 98.476C695.582 97.956 695.442 97.356 695.442 96.676C695.442 95.988 695.582 95.384 695.862 94.864C696.142 94.344 696.534 93.944 697.038 93.664C697.542 93.384 698.122 93.244 698.778 93.244C699.41 93.244 699.974 93.38 700.47 93.652C700.974 93.924 701.362 94.312 701.634 94.816C701.914 95.312 702.054 95.884 702.054 96.532ZM700.314 96.052C700.306 95.62 700.15 95.276 699.846 95.02C699.542 94.756 699.17 94.624 698.73 94.624C698.314 94.624 697.962 94.752 697.674 95.008C697.394 95.256 697.222 95.604 697.158 96.052H700.314ZM702.848 96.676C702.848 95.988 702.988 95.388 703.268 94.876C703.548 94.356 703.936 93.956 704.432 93.676C704.928 93.388 705.496 93.244 706.136 93.244C706.96 93.244 707.64 93.452 708.176 93.868C708.72 94.276 709.084 94.852 709.268 95.596H707.456C707.36 95.308 707.196 95.084 706.964 94.924C706.74 94.756 706.46 94.672 706.124 94.672C705.644 94.672 705.264 94.848 704.984 95.2C704.704 95.544 704.564 96.036 704.564 96.676C704.564 97.308 704.704 97.8 704.984 98.152C705.264 98.496 705.644 98.668 706.124 98.668C706.804 98.668 707.248 98.364 707.456 97.756H709.268C709.084 98.476 708.72 99.048 708.176 99.472C707.632 99.896 706.952 100.108 706.136 100.108C705.496 100.108 704.928 99.968 704.432 99.688C703.936 99.4 703.548 99 703.268 98.488C702.988 97.968 702.848 97.364 702.848 96.676Z" fill="#607087"/>
</svg>
