<svg width="84" height="100" viewBox="0 0 84 100" fill="none" xmlns="http://www.w3.org/2000/svg">
<g clip-path="url(#clip0_1327_27)">
<path d="M55.8023 68.835C49.5008 58.6554 37.3826 64.4724 20.417 77.5602L25.749 107.614H58.7107C61.4252 101.409 72.7679 108.098 74.2221 92.1023C75.6763 76.1062 62.1038 79.0146 55.8023 68.835Z" fill="#FDE7DE"/>
<path d="M14.306 17.186C9.08049 16.7254 -6.88901 50.2653 -2.73415 76.9262C0.577223 83.875 8.77913 93.9178 15.0958 78.4984C22.9915 59.2242 19.5315 17.6465 14.306 17.186Z" fill="#FDE7DE"/>
<path d="M39.7262 25.557C33.6115 23.3509 4.87463 55.6688 2.17469 86.8117C4.13512 95.65 11.0524 109.529 23.0383 94.34C38.0205 75.3533 45.8409 27.7631 39.7262 25.557Z" fill="#E7E3F5"/>
<path d="M28.1242 21.0862C27.992 20.5674 28.3055 20.0396 28.8244 19.9075C29.3432 19.7754 29.871 20.0889 30.0031 20.6077L28.1242 21.0862ZM11.9055 86.8192C17.8485 76.2577 22.7803 63.1964 25.7842 51.0521C28.7995 38.862 29.8273 27.774 28.1242 21.0862L30.0031 20.6077C31.8316 27.7877 30.6947 39.2751 27.6664 51.5177C24.6268 63.806 19.6361 77.0347 13.5952 87.7701L11.9055 86.8192Z" fill="#F25F1C"/>
<path d="M63.7275 83.546C63.9022 83.3432 64.2083 83.3203 64.4111 83.495C64.614 83.6697 64.6368 83.9758 64.4621 84.1786L63.7275 83.546ZM33.0782 144.705C41.2134 135.731 45.9293 123.917 50.083 112.58C52.1549 106.925 54.0902 101.38 56.237 96.4075C58.3842 91.4341 60.7585 86.9939 63.7275 83.546L64.4621 84.1786C61.5875 87.5169 59.2594 91.8526 57.1271 96.7917C54.9944 101.732 53.0732 107.236 50.9933 112.913C46.8433 124.241 42.0741 136.225 33.7965 145.356L33.0782 144.705Z" fill="#427A0A"/>
<path d="M70.4797 37.09C64.3962 31.5327 15.0363 55.377 -3.27682 90.5147C-5.28261 101.813 -3.93935 121.424 17.48 109.478C44.2543 94.5444 76.5632 42.6473 70.4797 37.09Z" fill="#C9D7F0"/>
<path d="M43.1144 108.573C38.6286 117.263 14.7866 119.516 4.54503 114.229C-5.69654 108.942 -10.3625 97.6121 -5.87672 88.9223C-1.39092 80.2325 10.5839 71.9748 20.7895 82.7606C30.9952 93.5464 46.9931 94.5159 43.1144 108.573Z" fill="#DFE9D6"/>
<path d="M75.6389 22.6754C76.1134 22.4275 76.2972 21.8419 76.0493 21.3673C75.8014 20.8927 75.2157 20.709 74.7411 20.9569L75.6389 22.6754ZM19.1393 111.748C21.6442 94.876 29.4687 75.8809 39.8525 59.4394C50.2457 42.9834 63.1211 29.2144 75.6389 22.6754L74.7411 20.9569C61.7941 27.7201 48.694 41.8092 38.2132 58.4041C27.7232 75.0136 19.7752 94.2622 17.2214 111.464L19.1393 111.748Z" fill="#4E37BA"/>
<ellipse cx="61.6186" cy="96.4654" rx="1.93892" ry="0.969461" fill="#427A0A"/>
<ellipse cx="53.0112" cy="92.705" rx="1.93892" ry="0.969461" transform="rotate(45 53.0112 92.705)" fill="#427A0A"/>
<ellipse cx="62.5878" cy="93.5564" rx="1.93892" ry="0.969461" fill="#427A0A"/>
<ellipse cx="54.9497" cy="89.7967" rx="1.93892" ry="0.969461" transform="rotate(45 54.9497 89.7967)" fill="#427A0A"/>
<ellipse cx="64.5275" cy="90.648" rx="1.93892" ry="0.969461" fill="#427A0A"/>
<ellipse cx="56.8881" cy="86.8884" rx="1.93892" ry="0.969461" transform="rotate(45 56.8881 86.8884)" fill="#427A0A"/>
<ellipse cx="66.4658" cy="87.7397" rx="1.93892" ry="0.969461" fill="#427A0A"/>
<ellipse cx="58.8266" cy="83.9794" rx="1.93892" ry="0.969461" transform="rotate(45 58.8266 83.9794)" fill="#427A0A"/>
<ellipse cx="67.435" cy="84.8321" rx="1.93892" ry="0.969461" fill="#427A0A"/>
<ellipse cx="60.7663" cy="81.0711" rx="1.93892" ry="0.969461" transform="rotate(45 60.7663 81.0711)" fill="#427A0A"/>
<circle cx="72.2827" cy="29.5729" r="1.93892" fill="#4E37BA"/>
<circle cx="78.0991" cy="25.6947" r="1.93892" fill="#4E37BA"/>
<circle cx="79.0683" cy="19.8773" r="1.93892" fill="#4E37BA"/>
<circle cx="71.312" cy="18.9088" r="1.93892" fill="#4E37BA"/>
<ellipse cx="29.0658" cy="20.0062" rx="3.87784" ry="1.93892" transform="rotate(-17.8958 29.0658 20.0062)" fill="#F25F1C"/>
<ellipse cx="29.0658" cy="20.0062" rx="3.87784" ry="1.93892" transform="rotate(-17.8958 29.0658 20.0062)" fill="#F25F1C"/>
<circle cx="64.5275" cy="22.7864" r="1.93892" fill="#4E37BA"/>
</g>
<defs>
<clipPath id="clip0_1327_27">
<rect width="84" height="100" fill="white"/>
</clipPath>
</defs>
</svg>
