<svg width="100" height="100" viewBox="0 0 100 100" fill="none" xmlns="http://www.w3.org/2000/svg">
<g clip-path="url(#clip0_1332_150)">
<path d="M100 50C100 77.6142 77.6142 100 50 100C22.3858 100 0 77.6142 0 50C0 22.3858 22.3858 0 50 0C77.6142 0 100 22.3858 100 50ZM5 50C5 74.8528 25.1472 95 50 95C74.8528 95 95 74.8528 95 50C95 25.1472 74.8528 5 50 5C25.1472 5 5 25.1472 5 50Z" fill="#DCEAD7"/>
<path d="M50 0C57.8907 9.40962e-08 65.6695 1.86756 72.7001 5.44997C79.7308 9.03239 85.8137 14.2279 90.4516 20.6118C95.0895 26.9957 98.1507 34.3866 99.3847 42.1802C100.619 49.9739 99.9908 57.9489 97.552 65.4534C95.1132 72.9578 90.933 79.7784 85.353 85.3577C79.773 90.9369 72.9518 95.1163 65.4471 97.554C57.9424 99.9918 49.9672 100.619 42.1737 99.3837C34.3802 98.1486 26.9897 95.0865 20.6065 90.4477L23.5458 86.403C29.2908 90.5778 35.9422 93.3337 42.9563 94.4453C49.9705 95.5569 57.1481 94.9926 63.9024 92.7986C70.6566 90.6046 76.7957 86.8432 81.8177 81.8219C86.8397 76.8006 90.6019 70.662 92.7968 63.908C94.9917 57.154 95.5569 49.9765 94.4463 42.9622C93.3356 35.9479 90.5806 29.2961 86.4065 23.5506C82.2324 17.8051 76.7577 13.1291 70.4301 9.90498C64.1025 6.6808 57.1017 5 50 5V0Z" fill="#9037BA"/>
<path d="M50 0C63.2608 1.58134e-07 75.9785 5.26784 85.3553 14.6447C94.7322 24.0215 100 36.7392 100 50C100 63.2608 94.7322 75.9785 85.3553 85.3553C75.9785 94.7322 63.2608 100 50 100V95C61.9347 95 73.3807 90.2589 81.8198 81.8198C90.2589 73.3807 95 61.9347 95 50C95 38.0653 90.2589 26.6193 81.8198 18.1802C73.3807 9.74106 61.9347 5 50 5V0Z" fill="#F8D966"/>
<path d="M50 0C57.9015 9.42241e-08 65.6905 1.87264 72.7284 5.4644C79.7663 9.05615 85.8528 14.2648 90.4889 20.6632C95.125 27.0616 98.1786 34.4677 99.3995 42.2743C100.62 50.0809 99.9738 58.0657 97.5126 65.5741L92.7614 64.0167C94.9764 57.2591 95.5584 50.0728 94.4596 43.0469C93.3608 36.021 90.6125 29.3555 86.44 23.5969C82.2675 17.8383 76.7897 13.1505 70.4556 9.91796C64.1214 6.68538 57.1113 5 50 5V0Z" fill="#376BBA"/>
</g>
<defs>
<clipPath id="clip0_1332_150">
<rect width="100" height="100" fill="white"/>
</clipPath>
</defs>
</svg>
