<svg width="166" height="129" viewBox="0 0 166 129" fill="none" xmlns="http://www.w3.org/2000/svg">
<path d="M-14 42.7968C-3.79646 42.7968 10.9087 23.3463 25.0136 23.0221C39.1185 22.6979 40.3189 11.8738 53.5235 11.8738C66.728 11.8738 68.2286 32.4231 82.3335 32.4231C96.4384 32.4231 97.3387 50.9505 111.444 50.9505C125.548 50.9505 125.548 2.79669 139.953 2.79669C154.358 2.79669 157.66 42 168.763 42C176.416 42 178.679 47.4539 178.967 32.1305V23.0221C179.009 26.6677 179.013 29.6675 178.967 32.1305V130H-14V42.7968Z" fill="url(#paint0_linear_1332_181)"/>
<path d="M-14 42.7968C-3.79646 42.7968 10.9087 23.3463 25.0136 23.0221C39.1185 22.6979 40.3189 11.8738 53.5235 11.8738C66.728 11.8738 68.2286 32.4231 82.3335 32.4231C96.4384 32.4231 97.3387 50.9505 111.444 50.9505C125.548 50.9505 125.548 2.79669 139.953 2.79669C154.358 2.79669 157.66 42 168.763 42C177.647 42 179.267 49.3481 178.967 23.0221V130H-14V42.7968Z" stroke="#377BBA" stroke-width="4.21023"/>
<defs>
<linearGradient id="paint0_linear_1332_181" x1="82.5" y1="12" x2="82.6559" y2="130" gradientUnits="userSpaceOnUse">
<stop stop-color="#3793BA" stop-opacity="0.2"/>
<stop offset="1" stop-color="#378BBA" stop-opacity="0"/>
</linearGradient>
</defs>
</svg>
