<svg width="70" height="19" viewBox="0 0 70 19" fill="none" xmlns="http://www.w3.org/2000/svg">
<path d="M0.647705 4.36363V0.545453H15.8182V4.36363H10.5682V18H5.89771V4.36363H0.647705Z" fill="#DDE5E7"/>
<path d="M17.6015 18V0.545453H22.3402V7.36363H28.6129V0.545453H33.3515V18H28.6129V11.1818H22.3402V18H17.6015Z" fill="#DDE5E7"/>
<path d="M52.5106 9.27273C52.5106 11.2159 52.1328 12.8551 51.3771 14.1903C50.6214 15.5199 49.6015 16.5284 48.3174 17.2159C47.0334 17.8977 45.6015 18.2386 44.022 18.2386C42.4311 18.2386 40.9936 17.8949 39.7095 17.2074C38.4311 16.5142 37.414 15.5028 36.6584 14.1733C35.9084 12.8381 35.5334 11.2045 35.5334 9.27273C35.5334 7.32954 35.9084 5.69318 36.6584 4.36363C37.414 3.02841 38.4311 2.01988 39.7095 1.33807C40.9936 0.650566 42.4311 0.306816 44.022 0.306816C45.6015 0.306816 47.0334 0.650566 48.3174 1.33807C49.6015 2.01988 50.6214 3.02841 51.3771 4.36363C52.1328 5.69318 52.5106 7.32954 52.5106 9.27273ZM47.6356 9.27273C47.6356 8.22727 47.4964 7.34659 47.218 6.63068C46.9453 5.90909 46.539 5.36363 45.9993 4.99432C45.4652 4.61932 44.8061 4.43182 44.022 4.43182C43.2379 4.43182 42.576 4.61932 42.0362 4.99432C41.5021 5.36363 41.0959 5.90909 40.8174 6.63068C40.5447 7.34659 40.4084 8.22727 40.4084 9.27273C40.4084 10.3182 40.5447 11.2017 40.8174 11.9233C41.0959 12.6392 41.5021 13.1847 42.0362 13.5597C42.576 13.929 43.2379 14.1136 44.022 14.1136C44.8061 14.1136 45.4652 13.929 45.9993 13.5597C46.539 13.1847 46.9453 12.6392 47.218 11.9233C47.4964 11.2017 47.6356 10.3182 47.6356 9.27273Z" fill="#DDE5E7"/>
<path d="M54.7031 18V0.545453H62.2372C63.5326 0.545453 64.6662 0.781248 65.6378 1.25284C66.6094 1.72443 67.365 2.40341 67.9048 3.28977C68.4446 4.17613 68.7145 5.23863 68.7145 6.47727C68.7145 7.72727 68.4361 8.78125 67.8792 9.6392C67.3281 10.4972 66.5525 11.1449 65.5525 11.5824C64.5582 12.0199 63.3963 12.2386 62.0667 12.2386H57.5667V8.55682H61.1122C61.669 8.55682 62.1434 8.48863 62.5355 8.35227C62.9332 8.21022 63.2372 7.98579 63.4474 7.67898C63.6633 7.37216 63.7713 6.97159 63.7713 6.47727C63.7713 5.97727 63.6633 5.57102 63.4474 5.25852C63.2372 4.94034 62.9332 4.70738 62.5355 4.55966C62.1434 4.40625 61.669 4.32954 61.1122 4.32954H59.4417V18H54.7031ZM64.9304 9.98863L69.294 18H64.1463L59.8849 9.98863H64.9304Z" fill="#DDE5E7"/>
</svg>
